<?xml version="1.0" encoding="utf-8"?>
<!-- Svg Vector Icons : http://www.onlinewebfonts.com/icon -->
<!DOCTYPE svg PUBLIC "-//W3C//DTD SVG 1.1//EN" "http://www.w3.org/Graphics/SVG/1.1/DTD/svg11.dtd">
<svg version="1.1" xmlns="http://www.w3.org/2000/svg" xmlns:xlink="http://www.w3.org/1999/xlink" x="0px" y="0px" viewBox="0 0 256 256" enable-background="new 0 0 256 256" xml:space="preserve">
<metadata> Svg Vector Icons : http://www.onlinewebfonts.com/icon </metadata>
<g><g><path fill="#000000" d="M238.1,17.9H99.6c-4.3,0-7.9,3.5-7.9,7.8v30.5l15.7,10V33.6H208l-40.5,23c-2.5,1.4-4,4-4,6.8v121.3h-56.1v-11.2l-15.7-16v35c0,4.3,3.5,7.9,7.9,7.9h64v29.8c0,2.8,1.5,5.4,3.9,6.8c1.2,0.7,2.6,1.1,3.9,1.1c1.3,0,2.7-0.3,3.9-1l65.2-37c3.2-1,5.5-3.9,5.5-7.5V25.8C246,21.5,242.5,17.9,238.1,17.9L238.1,17.9L238.1,17.9z M107.5,134.2l8.4,12.1c0,0,21.4-0.3,32.6,0c11.2,0.3,9.6,17.5,0.1,17.8c-9.5,0.3-34,0.1-38.2,0.1c-4.2,0-6.4-3-8-5.3l-7.8-11.4L107.5,134.2z M44,71.5c7.7,0,14-6.3,14-14c0-7.7-6.3-14-14-14s-14,6.3-14,14C30,65.2,36.3,71.5,44,71.5z M65.4,70.7c0,0,21.1-4.9,24.8-5.4c3.8-0.6,3.9-0.6,7.3,1.5c3.4,2.1,16.9,10.2,25.3,15.8c8.5,5.6-1.2,16.9-7.6,12.7L92.7,80.5l-15,3.4c0,0,17,24.1,21.1,30.6c4.1,6.5,5.3,14.4-2.9,20c-8.2,5.6-28.8,19.4-28.8,19.4s11.2,24,15.5,34.1c4.3,10.2-11.4,17.7-16.9,6.8c-5.5-10.9-14.2-33.2-17.7-40c-3.5-6.8-2.2-9.5,3.5-13.2l22-14.1l-16.2-25.9c0,0-3.8,8.8-5.6,12.6c-1.8,3.8-3.8,6.2-7.9,6.5c-4.1,0.3-14.2,1.8-25.6,2.6c-11.4,0.9-9.9-13.6-2.5-14.7l22.8-3.5l10.7-24.1L65.4,70.7L65.4,70.7z"/></g></g>
</svg>